<svg xmlns:dc="http://purl.org/dc/elements/1.1/" xmlns:cc="http://creativecommons.org/ns#" xmlns:rdf="http://www.w3.org/1999/02/22-rdf-syntax-ns#" xmlns:svg="http://www.w3.org/2000/svg" xmlns="http://www.w3.org/2000/svg" xmlns:sodipodi="http://sodipodi.sourceforge.net/DTD/sodipodi-0.dtd" xmlns:inkscape="http://www.inkscape.org/namespaces/inkscape" width="128" height="128" viewBox="0 0 33.866666 33.866668" version="1.1" id="svg8" inkscape:version="0.92.4 (5da689c313, 2019-01-14)" sodipodi:docname="4. DNA genetic, molecule, science, medical, chemistry, structure.svg">
  <defs id="defs2">
    <pattern y="0" x="0" height="6" width="6" patternUnits="userSpaceOnUse" id="EMFhbasepattern"></pattern>
  </defs>
  <sodipodi:namedview id="base" pagecolor="#ffffff" bordercolor="#666666" borderopacity="1.0" inkscape:pageopacity="0.0" inkscape:pageshadow="2" inkscape:zoom="2.8284273" inkscape:cx="69.245775" inkscape:cy="57.489225" inkscape:document-units="px" inkscape:current-layer="layer1" showgrid="false" units="px" inkscape:window-width="1280" inkscape:window-height="658" inkscape:window-x="-8" inkscape:window-y="-8" inkscape:window-maximized="1" showguides="true" inkscape:guide-bbox="true" inkscape:snap-global="true">
    <inkscape:grid type="xygrid" id="grid815" empspacing="1" originx="0" originy="0" spacingx="0" spacingy="0" snapvisiblegridlinesonly="true" visible="true" enabled="true" dotted="false"></inkscape:grid>
  </sodipodi:namedview>
  <metadata id="metadata5">
    <rdf:rdf>
      <cc:work rdf:about="">
        <dc:format>image/svg+xml</dc:format>
        <dc:type rdf:resource="http://purl.org/dc/dcmitype/StillImage"></dc:type>
        <dc:title></dc:title>
      </cc:work>
    </rdf:rdf>
  </metadata>
  <g inkscape:label="Layer 1" inkscape:groupmode="layer" id="layer1" transform="translate(0,-263.13332)">
    <path style="color: rgb(0, 0, 0); font-style: normal; font-variant: normal; font-weight: normal; font-stretch: normal; font-size: medium; line-height: normal; font-family: sans-serif; font-feature-settings: normal; text-indent: 0px; text-align: start; text-decoration: none solid rgb(0, 0, 0); letter-spacing: normal; word-spacing: normal; text-transform: none; writing-mode: lr-tb; direction: ltr; text-orientation: mixed; dominant-baseline: auto; baseline-shift: baseline; text-anchor: start; white-space: normal; clip-rule: nonzero; display: inline; overflow: visible; visibility: visible; opacity: 1; isolation: auto; mix-blend-mode: normal; color-interpolation: srgb; color-interpolation-filters: linearrgb; vector-effect: none; fill: rgb(47, 0, 53); fill-opacity: 1; fill-rule: nonzero; stroke: none; stroke-width: 0.529167; stroke-linecap: round; stroke-linejoin: round; stroke-miterlimit: 4; stroke-dasharray: none; stroke-dashoffset: 0; stroke-opacity: 1; color-rendering: auto; image-rendering: auto; shape-rendering: auto; text-rendering: auto;" d="m 0.61691701,270.8724 a 0.29083159,0.29105685 85.590859 0 0 -0.041017,0.36629 c 2.10827449,3.38229 4.05022789,4.76631 5.94540349,5.0998 1.8951748,0.33351 3.6664035,-0.37468 5.4413515,-0.99312 1.537599,-0.53573 3.07396,-1.0104 4.73073,-0.79549 l -6.192863,6.18813 c -0.272179,-0.3593 -0.5477413,-0.73884 -0.8287093,-1.14859 a 0.29083154,0.2910568 85.590957 0 0 -0.454172,-0.0377 0.29083154,0.2910568 85.590957 0 0 -0.02775,0.3675 c 2.6168013,3.81621 4.9251143,5.51265 7.0639053,6.07126 2.138783,0.5586 4.054581,-0.0344 5.843659,-0.6578 1.789085,-0.62336 3.45701,-1.26652 5.149956,-0.96861 0.452559,0.0796 0.912867,0.22877 1.383403,0.46339 l -6.928432,6.92312 c -0.01012,-0.02 -0.02357,-0.0407 -0.0334,-0.0607 -0.633698,-1.293 -0.612071,-2.49799 -0.335788,-3.74468 a 0.29083159,0.29105685 85.590859 0 0 -0.492345,-0.27026 0.29083159,0.29105685 85.590859 0 0 -0.07757,0.1442 c -0.292575,1.32019 -0.317294,2.69736 0.382793,4.12581 0.700093,1.42847 2.103542,2.8933 4.611444,4.47458 a 0.29083159,0.29105685 85.590859 1 0 0.310318,-0.4916 c -0.618033,-0.38968 -1.162849,-0.77024 -1.643408,-1.1417 l 7.241954,-7.23642 c 0.369037,0.48159 0.746362,1.02841 1.132935,1.64859 a 0.29084763,0.2910729 85.591083 1 0 0.493578,-0.30848 c -2.108274,-3.3823 -4.05022,-4.76631 -5.945403,-5.09982 -1.895175,-0.33349 -3.666406,0.37469 -5.441352,0.99312 -1.774948,0.61845 -3.547951,1.15736 -5.506837,0.64575 -0.179404,-0.0468 -0.361512,-0.10631 -0.545011,-0.17187 l 6.786542,-6.78136 c 0.503634,0.60195 1.021257,1.28339 1.556146,2.06344 a 0.29181092,0.29203695 85.59327 1 0 0.481973,-0.32971 c -2.6168,-3.81623 -4.923522,-5.51428 -7.062305,-6.07288 -2.138791,-0.55861 -4.056189,0.0361 -5.845266,0.65941 -1.7890853,0.62336 -3.4553975,1.26812 -5.1483454,0.97021 -0.2665196,-0.0469 -0.5358762,-0.12044 -0.808266,-0.21804 l 6.6036544,-6.5986 c 0.404783,1.10309 0.356841,2.15238 0.117176,3.23384 a 0.29164599,0.29187188 85.591953 1 0 0.569926,0.12608 c 0.292585,-1.32019 0.317293,-2.69737 -0.382792,-4.12582 -0.700093,-1.42846 -2.102337,-2.89208 -4.6102382,-4.47337 a 0.29083154,0.2910568 85.590957 0 0 -0.3737964,0.0458 0.29083154,0.2910568 85.590957 0 0 0.062273,0.44459 c 0.8254693,0.52048 1.5118743,1.02334 2.0967633,1.51197 l -7.330383,7.32484 C 2.0827692,272.45272 1.5844284,271.75639 1.069497,270.93029 a 0.29083159,0.29105685 85.590859 0 0 -0.45259369,-0.0578 z m 2.33262609,2.60557 7.3874599,-7.38181 c 0.875674,0.79844 1.463541,1.5571 1.829842,2.2815 L 5.2376099,275.3016 C 4.504239,274.93554 3.7455748,274.35649 2.9495431,273.47797 Z m 7.9106799,7.72309 6.525677,-6.52069 c 0.02796,0.007 0.05556,0.012 0.08358,0.0192 0.770388,0.2012 1.578076,0.5709 2.430385,1.16896 l -7.281346,7.27579 c -0.565866,-0.53666 -1.151331,-1.17934 -1.758315,-1.94334 z m 2.189163,2.33529 7.32154,-7.31594 c 0.606413,0.47799 1.23543,1.07335 1.89016,1.8124 l -6.992341,6.98699 c -0.706422,-0.32722 -1.444904,-0.80954 -2.219357,-1.48345 z m 8.953215,8.7367 7.154731,-7.14925 c 0.687882,0.43542 1.399126,1.06901 2.144162,1.9682 l -7.329981,7.32439 c -0.895363,-0.74795 -1.533507,-1.46062 -1.968912,-2.14334 z" id="path1673-6" inkscape:connector-curvature="0"></path>
  </g>
</svg>