<?xml version="1.0" standalone="no"?>
<!DOCTYPE svg PUBLIC "-//W3C//DTD SVG 20010904//EN"
 "http://www.w3.org/TR/2001/REC-SVG-20010904/DTD/svg10.dtd">
<svg version="1.0" xmlns="http://www.w3.org/2000/svg"
 width="512.000000pt" height="512.000000pt" viewBox="0 0 512.000000 512.000000"
 preserveAspectRatio="xMidYMid meet">

<g transform="translate(0.000000,512.000000) scale(0.100000,-0.100000)"
fill="#000000" stroke="none">
<path d="M2639 5106 c-102 -27 -181 -95 -228 -196 -21 -45 -26 -73 -29 -161
l-4 -107 -52 23 c-69 32 -132 39 -202 25 -117 -24 -202 -90 -253 -199 -24 -52
-26 -67 -29 -224 -3 -153 -5 -168 -20 -162 -115 48 -178 55 -267 31 -64 -17
-120 -52 -169 -106 -53 -59 -78 -121 -84 -206 l-4 -72 -76 -68 c-41 -37 -95
-95 -120 -128 -102 -139 -169 -328 -174 -488 -2 -73 0 -82 21 -99 25 -21 62
-24 91 -9 23 12 40 61 40 114 1 122 75 309 167 418 237 281 635 349 948 160
33 -20 116 -91 185 -158 125 -122 164 -149 197 -137 10 4 77 63 149 132 174
167 272 224 440 257 163 31 302 11 463 -68 91 -44 116 -62 191 -137 88 -88
134 -162 180 -284 12 -31 30 -62 40 -67 35 -19 77 -12 99 16 26 33 26 46 1
113 -87 228 -237 396 -447 500 l-83 42 0 319 c0 297 -1 323 -20 374 -69 183
-287 274 -464 193 l-54 -25 -4 72 c-6 85 -31 147 -84 206 -91 101 -219 140
-345 106z m181 -165 c19 -10 49 -37 65 -60 l30 -43 3 -508 c2 -495 2 -509 -17
-515 -47 -14 -154 -95 -243 -183 -83 -81 -100 -93 -113 -82 -13 11 -15 87 -15
634 l0 622 26 52 c50 100 162 136 264 83z m495 -322 c56 -15 104 -54 126 -103
17 -37 19 -69 19 -328 l0 -287 -108 6 c-95 5 -202 -4 -265 -23 -17 -5 -18 9
-15 298 3 295 4 304 26 343 25 43 72 81 118 95 40 12 53 11 99 -1z m-1033
-102 c21 -11 50 -38 65 -60 l28 -40 3 -354 3 -354 -64 44 c-35 24 -88 56 -118
70 -59 27 -174 67 -196 67 -10 0 -13 48 -13 248 0 246 0 248 26 300 51 102
164 135 266 79z m-587 -528 c39 -11 105 -53 105 -67 0 -4 -42 -13 -92 -19 -51
-6 -127 -22 -168 -36 -41 -14 -76 -24 -78 -22 -11 10 17 64 49 96 54 54 109
68 184 48z"/>
<path d="M3708 3161 c-107 -43 -181 -113 -220 -210 -22 -54 -23 -69 -26 -437
l-3 -380 -450 -450 -449 -449 -673 675 c-707 709 -713 716 -764 858 -30 82
-47 102 -87 102 -82 0 -95 -52 -45 -181 41 -105 108 -205 219 -322 l90 -95 0
-218 c0 -237 13 -361 54 -523 54 -214 154 -427 283 -606 l43 -59 0 -412 0
-413 26 -20 c15 -12 36 -21 48 -21 27 0 64 33 71 63 3 12 4 211 3 442 l-3 420
-67 92 c-203 282 -308 618 -308 988 l0 120 528 -526 c290 -290 537 -532 549
-538 12 -6 30 -11 40 -11 10 0 218 200 488 470 259 259 477 470 486 470 9 0
28 9 43 21 l26 20 0 392 c0 231 5 410 11 437 15 66 53 115 112 145 111 55 236
12 288 -100 17 -37 19 -71 19 -403 0 -397 4 -425 54 -438 44 -11 76 4 92 41
11 28 14 101 14 367 0 183 -4 359 -10 391 -21 128 -98 234 -208 285 -76 35
-203 42 -274 13z"/>
<path d="M4074 1927 c-24 -21 -27 -32 -35 -121 -24 -283 -145 -497 -393 -690
-191 -149 -298 -303 -358 -515 -19 -66 -22 -108 -26 -317 l-4 -241 28 -22 c33
-26 65 -27 95 -2 24 19 24 23 30 253 8 261 15 301 80 434 54 111 126 194 255
295 115 91 174 149 241 239 121 162 198 382 205 583 3 75 2 80 -25 103 -35 30
-59 30 -93 1z"/>
</g>
</svg>
