<?xml version="1.0" standalone="no"?>
<!DOCTYPE svg PUBLIC "-//W3C//DTD SVG 20010904//EN"
 "http://www.w3.org/TR/2001/REC-SVG-20010904/DTD/svg10.dtd">
<svg version="1.0" xmlns="http://www.w3.org/2000/svg"
 width="512.000000pt" height="512.000000pt" viewBox="0 0 512.000000 512.000000"
 preserveAspectRatio="xMidYMid meet">

<g transform="translate(0.000000,512.000000) scale(0.100000,-0.100000)"
fill="#000000" stroke="none">
<path d="M2241 4276 c-48 -17 -108 -71 -132 -118 -12 -23 -24 -68 -26 -99 l-6
-58 -46 -6 c-953 -125 -1633 -520 -1756 -1020 -15 -62 -17 -124 -16 -523 2
-407 4 -460 21 -526 41 -161 156 -333 306 -457 57 -47 64 -57 64 -88 1 -131
64 -275 165 -377 84 -85 156 -127 261 -154 75 -19 113 -20 1484 -20 1369 0
1409 1 1484 20 43 11 101 32 129 47 77 41 195 164 235 245 34 69 62 176 62
239 0 31 7 41 64 88 150 124 265 296 306 457 17 66 19 119 21 526 1 399 -1
461 -16 523 -55 226 -232 441 -503 612 -324 204 -741 340 -1253 408 l-46 6 -6
58 c-6 67 -32 123 -79 168 -61 59 -89 63 -402 62 -194 0 -291 -4 -315 -13z
m594 -150 c25 -11 36 -23 42 -48 5 -18 7 -165 5 -325 l-4 -293 -318 0 -318 0
-4 293 c-2 160 0 307 5 325 14 56 39 61 315 62 188 0 250 -3 277 -14z m-755
-475 l0 -188 -71 -5 c-130 -10 -199 -87 -199 -225 l0 -73 -338 0 c-378 0 -403
-3 -525 -67 -133 -70 -243 -210 -281 -359 -11 -44 -16 -110 -16 -225 l-1 -164
-45 50 c-72 80 -140 188 -165 262 -33 95 -33 251 1 337 53 137 150 259 298
378 251 200 665 362 1132 443 74 13 152 24 173 24 l37 1 0 -189z m1165 164
c890 -151 1494 -574 1462 -1025 -10 -134 -71 -261 -191 -395 l-45 -50 -1 160
c0 186 -13 256 -66 356 -63 119 -173 216 -309 270 -59 23 -67 24 -422 27
l-363 3 0 73 c0 137 -69 214 -199 224 l-71 5 0 188 0 189 29 0 c16 0 95 -11
176 -25z m-104 -526 c25 -25 28 -152 3 -187 l-15 -22 -569 0 -569 0 -15 22
c-11 15 -16 46 -16 95 0 122 -56 112 600 112 543 0 562 -1 581 -20z m-1270
-305 c50 -55 40 -54 690 -54 653 0 636 -1 690 56 l22 24 316 0 c174 0 342 -4
375 -10 134 -22 249 -108 309 -230 l32 -65 5 -660 c3 -363 2 -684 -2 -713 -21
-168 -167 -313 -344 -342 -79 -13 -2729 -13 -2808 0 -176 29 -323 175 -344
342 -4 29 -5 350 -2 713 l5 660 32 65 c58 118 176 209 300 230 26 4 195 8 374
9 l326 1 24 -26z m-1221 -1106 c0 -299 8 -285 -93 -158 -66 82 -119 186 -136
268 -6 29 -11 129 -11 221 l0 168 120 -119 120 -119 0 -261z m4045 98 c-23
-92 -65 -173 -132 -256 -101 -127 -93 -141 -93 158 l0 261 118 118 117 118 3
-169 c2 -127 -1 -184 -13 -230z"/>
<path d="M3434 2781 c-23 -10 -54 -36 -70 -57 -28 -37 -29 -40 -32 -180 -3
-128 -1 -146 17 -183 12 -23 40 -53 63 -68 l41 -28 233 -3 c258 -4 295 2 351
51 54 47 63 79 63 219 0 144 -15 188 -82 234 l-41 29 -251 3 c-229 2 -255 1
-292 -17z m510 -157 c9 -23 7 -177 -2 -192 -7 -9 -60 -12 -233 -10 l-224 3 -3
94 c-1 52 -1 100 2 108 4 10 53 13 230 13 195 0 225 -2 230 -16z"/>
<path d="M1244 1668 c-22 -10 -44 -47 -44 -72 0 -7 9 -25 21 -40 l20 -26 243
0 c231 0 244 1 261 20 28 31 24 79 -9 107 -27 23 -30 23 -249 22 -131 0 -231
-5 -243 -11z"/>
<path d="M1229 1351 c-17 -13 -23 -29 -23 -56 0 -27 6 -43 23 -56 22 -18 46
-19 351 -19 305 0 329 1 351 19 17 13 23 29 23 56 0 27 -6 43 -23 56 -22 18
-46 19 -351 19 -305 0 -329 -1 -351 -19z"/>
</g>
</svg>
