<?xml version="1.0" standalone="no"?>
<!DOCTYPE svg PUBLIC "-//W3C//DTD SVG 20010904//EN"
 "http://www.w3.org/TR/2001/REC-SVG-20010904/DTD/svg10.dtd">
<svg version="1.0" xmlns="http://www.w3.org/2000/svg"
 width="512.000000pt" height="512.000000pt" viewBox="0 0 512.000000 512.000000"
 preserveAspectRatio="xMidYMid meet">

<g transform="translate(0.000000,512.000000) scale(0.100000,-0.100000)"
fill="#000000" stroke="none">
<path d="M2509 5105 c-14 -8 -43 -44 -64 -80 -53 -90 -131 -173 -201 -214 -81
-47 -103 -69 -110 -106 -9 -50 17 -89 85 -125 74 -40 151 -115 209 -205 66
-103 79 -115 124 -115 57 0 73 12 132 103 66 102 141 176 218 217 45 24 64 41
75 67 27 67 6 101 -101 164 -70 41 -148 124 -201 214 -52 90 -103 114 -166 80z
m90 -238 c32 -48 156 -167 172 -167 19 0 5 -16 -56 -67 -33 -28 -80 -78 -105
-111 -25 -34 -47 -61 -50 -61 -3 0 -25 27 -50 61 -25 33 -72 83 -105 111 -61
51 -75 67 -56 67 16 0 140 119 172 167 17 24 34 43 39 43 5 0 22 -19 39 -43z"/>
<path d="M1161 4944 c-12 -15 -21 -33 -21 -41 0 -24 79 -187 97 -200 41 -31
101 -9 117 44 8 26 -63 189 -91 211 -30 22 -79 15 -102 -14z"/>
<path d="M3857 4958 c-28 -22 -99 -185 -91 -211 16 -53 76 -75 117 -44 18 13
97 176 97 200 0 8 -9 26 -21 41 -23 29 -72 36 -102 14z"/>
<path d="M725 4580 c-22 -24 -24 -72 -4 -96 7 -9 46 -38 86 -65 84 -57 121
-63 152 -23 42 54 27 84 -77 152 -86 57 -127 65 -157 32z"/>
<path d="M4234 4546 c-101 -68 -115 -96 -73 -150 31 -40 68 -34 152 23 40 27
79 56 86 65 20 24 18 72 -4 96 -31 34 -72 26 -161 -34z"/>
<path d="M1484 4343 c-63 -12 -68 -24 -434 -880 -193 -452 -359 -857 -370
-899 -93 -364 69 -740 393 -909 31 -17 57 -35 57 -41 0 -16 -270 -837 -278
-846 -4 -3 -133 -14 -287 -23 -157 -9 -302 -22 -330 -30 -62 -18 -126 -71
-154 -128 -38 -78 -21 -141 46 -170 59 -27 1254 -417 1275 -417 33 0 77 29 95
63 12 21 17 54 17 97 0 114 -22 142 -286 362 -125 104 -228 193 -228 197 0 5
63 200 140 435 l141 426 27 -7 c15 -5 81 -7 147 -7 148 2 238 24 368 91 75 38
110 65 188 143 99 99 156 189 192 305 9 28 91 371 183 763 92 391 171 712 174
712 3 0 82 -321 174 -712 92 -392 174 -735 183 -763 36 -116 93 -206 193 -306
86 -86 108 -103 201 -147 139 -67 216 -86 359 -86 63 -1 127 2 142 7 l27 7
141 -426 c77 -235 140 -430 140 -435 0 -4 -103 -93 -228 -197 -180 -150 -233
-200 -254 -239 -54 -98 -44 -217 21 -260 19 -13 43 -23 54 -23 11 0 84 20 163
46 110 35 148 51 164 71 25 33 25 54 -1 87 -27 35 -62 34 -175 -4 -49 -17 -95
-29 -102 -28 -32 7 38 79 248 252 182 151 230 186 255 186 16 0 149 -7 295
-15 187 -11 275 -20 299 -31 19 -8 30 -19 25 -23 -5 -5 -146 -54 -314 -110
-311 -103 -330 -112 -330 -160 0 -33 11 -51 41 -67 28 -14 43 -10 357 92 180
59 343 115 363 125 61 31 75 91 37 167 -30 59 -90 109 -153 127 -28 8 -170 21
-330 30 -154 9 -283 20 -287 23 -8 8 -278 830 -278 846 0 6 26 24 57 41 190
99 344 296 399 510 27 106 25 296 -4 400 -13 44 -181 449 -373 900 -374 876
-369 865 -444 879 -27 5 -138 -27 -549 -163 l-515 -169 -515 169 c-283 93
-521 168 -528 168 -7 -1 -22 -4 -34 -6z m512 -304 c253 -83 462 -154 466 -158
4 -3 -59 -288 -140 -631 l-148 -625 -129 -7 c-165 -9 -193 -13 -216 -34 -26
-23 -25 -78 2 -105 20 -20 27 -21 165 -14 120 6 144 5 140 -6 -3 -8 -21 -84
-41 -169 -48 -206 -84 -281 -184 -381 -135 -135 -277 -194 -466 -193 -125 0
-187 15 -299 71 -105 53 -220 171 -275 283 -77 157 -90 335 -36 497 3 9 20 5
61 -13 140 -62 376 -111 560 -116 132 -4 154 7 154 73 0 57 -21 66 -185 79
-154 11 -283 36 -390 74 -123 43 -136 50 -132 66 10 37 622 1460 628 1460 4 0
213 -68 465 -151z m1914 -585 c254 -596 311 -737 299 -744 -27 -17 -224 -79
-303 -95 -97 -20 -299 -35 -380 -30 -34 3 -155 12 -271 20 -115 8 -232 16
-260 18 l-49 2 -148 625 c-81 343 -145 627 -142 630 5 5 913 308 929 309 6 1
152 -330 325 -735z m389 -936 c82 -341 -115 -682 -455 -784 -41 -13 -92 -18
-169 -18 -189 -1 -331 58 -466 193 -102 102 -137 175 -187 391 l-38 165 40 3
c22 2 123 -4 225 -13 417 -38 699 -12 946 89 44 18 83 30 86 27 4 -3 11 -27
18 -53z m-3188 -2094 c202 -167 277 -243 250 -252 -12 -4 -1112 357 -1125 368
-5 5 6 16 25 24 31 14 354 40 565 45 l61 1 224 -186z"/>
<path d="M531 4041 c-11 -11 -21 -33 -21 -47 0 -61 32 -78 167 -89 79 -6 84
-5 108 19 32 32 33 75 1 105 -20 19 -38 23 -128 28 -98 5 -107 4 -127 -16z"/>
<path d="M4390 4053 c-75 -9 -104 -79 -55 -129 24 -24 29 -25 108 -19 135 11
167 28 167 89 0 48 -31 66 -112 64 -40 0 -89 -3 -108 -5z"/>
</g>
</svg>
