<?xml version="1.0" standalone="no"?>
<!DOCTYPE svg PUBLIC "-//W3C//DTD SVG 20010904//EN"
 "http://www.w3.org/TR/2001/REC-SVG-20010904/DTD/svg10.dtd">
<svg version="1.0" xmlns="http://www.w3.org/2000/svg"
 width="512.000000pt" height="512.000000pt" viewBox="0 0 512.000000 512.000000"
 preserveAspectRatio="xMidYMid meet">

<g transform="translate(0.000000,512.000000) scale(0.100000,-0.100000)"
fill="#000000" stroke="none">
<path d="M3844 5109 c-73 -12 -189 -55 -259 -97 -39 -23 -132 -106 -267 -240
l-207 -206 -95 22 c-301 69 -656 66 -950 -9 l-78 -20 -202 198 c-204 201 -257
242 -376 290 -103 41 -192 56 -315 50 -128 -6 -213 -29 -324 -88 -73 -39 -74
-40 -95 -21 -52 48 -107 67 -196 67 -112 0 -145 -18 -278 -149 -125 -122 -155
-175 -155 -274 -1 -81 14 -129 57 -185 l33 -43 -24 -34 c-37 -54 -80 -168 -99
-260 -34 -168 1 -363 92 -520 49 -86 695 -739 764 -773 35 -17 63 -22 125 -22
71 0 86 4 135 31 61 34 121 105 139 164 16 54 14 139 -6 196 -13 41 -43 76
-181 216 l-165 167 22 37 c71 120 267 339 401 449 285 232 654 384 1036 426
166 18 499 -2 593 -36 9 -4 -13 -33 -66 -89 -62 -64 -84 -95 -98 -136 -38
-115 3 -247 99 -321 57 -43 104 -59 178 -59 109 0 137 17 320 197 192 190 156
182 307 70 310 -229 540 -546 677 -931 30 -84 48 -101 99 -92 26 5 78 52 251
229 223 226 262 277 311 397 41 103 56 192 50 315 -6 128 -29 213 -88 324 -39
73 -40 74 -21 95 48 52 67 107 67 196 0 112 -18 145 -149 278 -122 125 -175
155 -274 155 -81 1 -129 -14 -185 -57 l-43 -33 -34 24 c-128 87 -353 131 -526
102z m250 -154 c69 -15 196 -67 196 -81 0 -4 -43 -51 -95 -104 -59 -61 -103
-115 -115 -143 l-21 -47 -42 22 c-33 18 -59 23 -117 23 -117 -1 -135 -13 -450
-330 -151 -152 -287 -283 -302 -291 -39 -20 -105 -18 -143 6 -58 36 -82 119
-51 178 8 15 162 174 343 353 309 307 333 329 405 363 132 63 257 80 392 51z
m-2826 -20 c84 -20 173 -66 252 -131 74 -60 306 -291 300 -297 -3 -2 -48 -23
-100 -46 -52 -23 -111 -50 -130 -60 l-34 -19 -99 94 c-74 71 -111 98 -153 113
-79 30 -151 26 -245 -13 -13 -6 -20 3 -34 36 -11 27 -52 78 -117 144 l-99 102
33 19 c110 67 287 91 426 58z m3432 -30 c14 -7 64 -54 112 -103 93 -96 107
-126 93 -199 -5 -32 -33 -65 -173 -205 -180 -179 -195 -189 -279 -173 -53 10
-227 182 -242 240 -20 78 -5 104 168 278 189 191 227 210 321 162z m-4163 -5
c32 -13 327 -301 349 -342 18 -35 18 -92 -2 -133 -8 -18 -54 -71 -102 -118
-99 -96 -138 -114 -207 -96 -32 9 -72 43 -202 172 -177 178 -193 204 -172 281
12 44 159 204 212 230 37 18 84 20 124 6z m3416 -434 c18 -8 136 -119 264
-247 293 -296 294 -299 156 -440 l-75 -78 -55 77 c-30 42 -82 108 -115 145
l-61 68 26 27 c32 35 40 64 26 95 -11 24 -47 47 -74 47 -8 0 -30 -14 -49 -31
l-35 -30 -80 64 c-43 36 -107 84 -141 107 l-62 42 68 70 c94 96 138 114 207
84z m-2695 -20 c41 -22 158 -144 147 -154 -6 -5 -45 -35 -88 -67 -44 -32 -103
-81 -133 -108 l-55 -50 -27 25 c-35 33 -64 41 -95 27 -24 -11 -47 -47 -47 -74
0 -8 14 -30 31 -49 l30 -35 -68 -83 c-37 -46 -86 -110 -107 -141 l-40 -58 -73
73 c-79 78 -99 118 -88 176 6 31 42 73 238 271 128 128 246 239 262 247 39 17
80 17 113 0z m3644 -216 c45 -104 60 -250 37 -362 -17 -82 -73 -194 -133 -267
-30 -36 -109 -119 -174 -185 -108 -107 -142 -129 -142 -94 0 6 -26 65 -57 130
l-57 119 97 97 c75 75 102 110 117 150 29 76 25 150 -14 243 -5 11 6 21 41 37
31 14 82 56 143 117 106 107 102 106 142 15z m-4552 -35 c61 -59 115 -103 143
-115 l47 -21 -22 -42 c-18 -33 -23 -59 -23 -117 1 -117 13 -135 330 -450 152
-151 283 -287 291 -302 20 -39 18 -105 -6 -143 -36 -58 -119 -82 -178 -51 -15
8 -174 162 -353 343 -307 308 -329 333 -363 405 -63 132 -80 257 -51 392 15
69 67 196 81 196 4 0 51 -43 104 -95z"/>
<path d="M3409 3802 c-15 -9 -151 -127 -302 -261 -298 -264 -315 -284 -302
-362 8 -46 11 -49 249 -317 103 -117 201 -219 217 -227 38 -20 97 -19 136 3
17 9 155 127 307 261 316 280 331 301 292 395 -18 43 -418 491 -456 511 -39
20 -109 19 -141 -3z m269 -348 l191 -216 -261 -231 c-144 -128 -265 -232 -270
-232 -9 0 -378 416 -378 427 0 8 511 466 521 467 3 1 92 -96 197 -215z"/>
<path d="M4509 2841 c-24 -19 -24 -20 -25 -243 0 -165 -5 -250 -18 -328 -10
-58 -20 -108 -23 -113 -2 -4 -39 24 -81 63 -97 88 -157 114 -253 107 -157 -10
-269 -130 -269 -287 0 -111 16 -138 198 -322 l165 -167 -28 -43 c-116 -177
-298 -369 -467 -494 -338 -250 -726 -378 -1148 -378 -148 0 -354 21 -405 41
-12 4 5 27 63 88 95 98 118 150 110 250 -13 154 -133 265 -288 265 -111 0
-138 -16 -322 -198 l-167 -165 -53 34 c-137 88 -296 231 -416 374 -305 364
-470 846 -448 1312 7 148 0 167 -61 179 -25 5 -37 1 -56 -18 -22 -22 -26 -38
-32 -123 -13 -174 13 -443 61 -627 l15 -60 -198 -202 c-201 -204 -242 -257
-290 -376 -41 -103 -56 -192 -50 -315 6 -128 29 -213 88 -324 39 -73 40 -74
21 -95 -48 -52 -67 -107 -67 -196 0 -75 3 -91 29 -137 34 -63 214 -241 268
-266 58 -27 126 -37 188 -25 55 10 126 44 149 71 10 13 21 10 79 -23 81 -47
165 -76 263 -91 82 -13 221 -7 262 12 34 15 51 57 38 92 -16 41 -40 48 -143
41 -67 -4 -114 -2 -167 10 -73 15 -201 68 -201 82 0 4 43 51 95 104 58 60 103
115 115 143 l20 46 48 -22 c34 -16 66 -21 117 -21 113 1 133 16 445 329 151
152 287 283 302 291 38 20 107 18 144 -5 56 -34 80 -121 50 -179 -8 -15 -165
-177 -350 -361 -239 -237 -336 -341 -336 -356 0 -39 37 -75 77 -75 33 0 51 15
245 207 l208 207 58 -12 c349 -77 624 -78 951 -6 l113 25 192 -188 c105 -104
218 -206 250 -228 229 -149 514 -164 762 -40 l85 43 50 -34 c88 -59 176 -69
276 -33 49 18 76 40 169 133 133 133 157 177 157 282 0 58 -5 83 -26 126 -15
30 -36 63 -47 73 -19 18 -19 18 1 46 30 42 75 146 95 220 22 81 25 280 5 358
-45 175 -94 247 -334 488 l-201 202 13 58 c49 225 68 442 54 622 -9 117 -11
126 -37 148 -33 28 -56 29 -87 4z m-321 -675 c15 -8 174 -162 353 -343 307
-308 329 -333 363 -405 63 -132 80 -257 51 -392 -15 -69 -67 -196 -81 -196 -4
0 -51 43 -104 95 -61 59 -115 103 -143 115 l-47 21 21 41 c30 59 35 134 14
204 -18 57 -30 71 -305 349 -158 160 -294 301 -304 315 -22 33 -21 107 3 146
34 56 121 80 179 50z m-3543 -413 c16 -38 44 -99 63 -137 l34 -69 -96 -96
c-74 -74 -101 -109 -116 -149 -29 -76 -25 -150 14 -243 6 -13 -3 -20 -36 -34
-28 -11 -78 -52 -145 -117 l-102 -100 -30 61 c-100 197 -72 457 66 630 43 54
304 321 314 321 3 0 19 -30 34 -67z m3827 -495 c22 -75 10 -92 -249 -350 -203
-202 -243 -237 -275 -243 -60 -11 -87 2 -169 82 l-78 75 82 61 c45 33 110 85
145 115 l63 55 22 -21 c49 -47 113 -45 136 4 17 37 14 50 -20 89 l-31 35 26
33 c15 17 64 81 108 140 l82 108 73 -73 c49 -48 77 -86 85 -110z m-3529 -3
c22 -27 56 -67 76 -87 l35 -38 -26 -27 c-33 -36 -41 -65 -27 -96 11 -24 47
-47 74 -47 8 0 30 14 50 31 l35 31 73 -59 c39 -33 103 -81 140 -108 l69 -48
-74 -74 c-84 -84 -125 -103 -185 -85 -30 9 -91 65 -275 249 -202 203 -237 243
-243 275 -11 60 2 87 82 169 l76 78 40 -57 c22 -31 58 -79 80 -107z m3622
-354 c24 -11 100 -79 191 -172 120 -122 154 -162 163 -194 18 -67 0 -106 -92
-202 -114 -119 -171 -143 -250 -109 -18 7 -102 85 -189 172 -130 132 -157 165
-163 197 -14 74 0 105 93 200 83 86 144 127 187 127 11 0 38 -9 60 -19z
m-3867 -15 c15 -8 66 -54 113 -103 63 -64 90 -100 99 -130 22 -74 2 -107 -178
-285 -168 -167 -195 -184 -266 -168 -47 10 -79 35 -168 128 -82 86 -96 118
-83 190 6 31 33 63 158 191 84 84 166 162 182 172 36 23 105 25 143 5z m2977
-245 c86 -84 110 -102 155 -115 66 -20 123 -20 175 0 73 28 70 28 90 -18 11
-25 60 -85 118 -145 l99 -102 -58 -29 c-93 -46 -148 -57 -274 -56 -98 1 -125
4 -182 26 -114 43 -170 85 -338 253 l-161 161 100 43 c54 24 112 52 128 62 15
10 32 19 37 19 5 0 55 -45 111 -99z"/>
<path d="M1580 2315 c-14 -7 -115 -94 -225 -192 -161 -144 -202 -186 -213
-217 -23 -72 -10 -93 220 -352 116 -132 224 -248 241 -258 35 -23 108 -24 140
-3 29 19 307 264 374 330 35 34 55 62 59 84 14 74 4 90 -222 345 -118 134
-229 251 -247 261 -38 20 -92 22 -127 2z m135 -220 c37 -41 65 -78 63 -83 -1
-4 -79 -77 -173 -161 l-169 -153 -63 69 c-35 37 -67 75 -73 84 -7 13 24 45
163 167 94 84 175 152 178 152 4 0 37 -34 74 -75z m243 -274 l72 -79 -178
-157 -177 -156 -67 73 c-37 40 -66 78 -64 83 2 8 334 315 341 315 1 0 34 -36
73 -79z"/>
</g>
</svg>
