<?xml version="1.0" standalone="no"?>
<!DOCTYPE svg PUBLIC "-//W3C//DTD SVG 20010904//EN"
 "http://www.w3.org/TR/2001/REC-SVG-20010904/DTD/svg10.dtd">
<svg version="1.0" xmlns="http://www.w3.org/2000/svg"
 width="3508.000000pt" height="2481.000000pt" viewBox="0 0 3508.000000 2481.000000"
 preserveAspectRatio="xMidYMid meet">

<g transform="translate(0.000000,2481.000000) scale(0.100000,-0.100000)"
fill="#000000" stroke="none">
<path d="M7265 23858 c-2 -7 -97 -398 -210 -868 -113 -470 -208 -863 -211
-872 -5 -17 50 -18 1055 -18 618 0 1061 -4 1061 -9 0 -5 -655 -2714 -1455
-6021 -800 -3306 -1455 -6016 -1455 -6021 0 -5 430 -9 1073 -9 l1072 0 1395
5848 c767 3216 1414 5929 1438 6030 l44 182 2739 0 c2183 0 2741 3 2744 13 14
36 422 1743 418 1750 -2 4 -2187 7 -4854 7 -3871 0 -4851 -3 -4854 -12z"/>
<path d="M17565 23858 c-5 -13 -3291 -13738 -3302 -13791 l-6 -27 1013 2 1013
3 1073 4490 c589 2470 1086 4527 1102 4573 59 158 143 267 250 319 49 24 69
28 142 28 90 -1 126 -13 167 -57 43 -46 56 -96 55 -203 -1 -96 -44 -278 -1080
-4625 l-1079 -4525 1000 -3 c550 -1 1001 -1 1003 0 2 3 2203 9148 2238 9299
132 576 77 1020 -162 1306 -129 154 -363 268 -647 314 -121 20 -448 17 -562
-4 -341 -64 -615 -207 -875 -456 -60 -57 -138 -139 -174 -182 -53 -64 -71 -79
-94 -79 l-28 0 69 183 c67 176 82 232 453 1787 212 883 387 1617 391 1633 l7
27 -981 0 c-776 0 -983 -3 -986 -12z"/>
<path d="M30456 23862 c-2 -4 -165 -704 -361 -1554 -353 -1536 -356 -1548
-385 -1795 -17 -136 -30 -254 -30 -260 0 -7 -9 -13 -20 -13 -15 0 -23 14 -40
71 -70 235 -241 439 -459 549 -173 86 -318 115 -571 114 -287 -1 -527 -52
-759 -160 -197 -92 -411 -264 -564 -454 -241 -299 -455 -765 -607 -1325 -71
-262 -1703 -7008 -1744 -7213 -65 -315 -87 -494 -93 -742 -4 -179 -2 -248 11
-338 88 -594 441 -882 1086 -882 365 0 694 105 995 319 99 70 283 247 361 346
33 43 66 75 76 75 16 0 15 -6 -8 -67 -107 -281 -154 -427 -154 -480 0 -10 203
-13 980 -13 l980 0 7 28 c88 353 3299 13789 3296 13795 -6 10 -1990 9 -1997
-1z m-1321 -4413 c100 -28 144 -102 152 -257 3 -53 1 -135 -5 -182 -15 -118
-1737 -7258 -1768 -7333 -54 -129 -139 -227 -232 -270 -38 -17 -66 -21 -147
-22 -89 0 -104 3 -139 24 -45 28 -81 97 -91 176 -17 133 -18 125 895 3900 971
4014 899 3736 1009 3857 89 97 213 138 326 107z"/>
<path d="M13716 20969 c-526 -38 -1012 -196 -1389 -451 -98 -67 -247 -191
-345 -287 -290 -288 -495 -622 -633 -1033 -34 -104 -519 -2023 -519 -2056 0
-9 246 -12 979 -12 l979 0 25 103 c14 56 123 501 242 990 118 488 224 910 235
938 55 137 124 220 223 265 53 24 75 28 147 28 91 0 126 -12 166 -56 48 -52
59 -87 59 -198 0 -104 -2 -114 -365 -1598 -213 -870 -369 -1490 -375 -1488
-175 79 -343 133 -498 163 -118 23 -581 26 -722 5 -271 -41 -497 -109 -702
-212 -185 -94 -302 -179 -458 -335 -239 -239 -400 -510 -526 -888 -63 -188
-823 -3261 -858 -3469 -45 -264 -55 -392 -41 -533 50 -541 332 -857 855 -962
130 -25 493 -26 620 0 374 76 682 268 952 593 l86 104 48 0 47 0 -72 -172
c-63 -149 -106 -295 -106 -355 0 -10 203 -13 980 -13 l980 0 5 23 c3 12 489
2045 1081 4517 591 2472 1081 4536 1090 4587 51 318 30 664 -53 898 -106 297
-342 549 -652 697 -355 169 -916 247 -1485 207z m-852 -5659 c27 -14 57 -36
67 -50 18 -25 14 -44 -376 -1682 -217 -911 -408 -1699 -425 -1750 -42 -128
-121 -283 -174 -344 -25 -29 -71 -65 -108 -85 -60 -32 -68 -34 -163 -34 -88 0
-105 3 -145 25 -96 54 -116 130 -75 296 14 60 186 784 381 1609 195 825 368
1543 384 1595 62 194 150 338 240 395 71 45 117 55 235 53 95 -3 117 -6 159
-28z"/>
<path d="M24020 20969 c-525 -37 -1003 -189 -1370 -434 -472 -315 -805 -754
-996 -1309 -33 -96 -534 -2058 -534 -2091 0 -3 442 -4 982 -3 l982 3 173 710
c95 391 205 841 244 1000 81 332 117 424 200 507 73 73 143 102 249 102 99 1
150 -19 188 -74 35 -53 45 -105 39 -220 -5 -95 -40 -248 -366 -1574 -198 -807
-362 -1470 -364 -1473 -3 -2 -24 5 -47 17 -131 67 -378 138 -553 160 -129 16
-525 8 -667 -15 -332 -51 -617 -157 -851 -313 -428 -288 -707 -728 -869 -1372
-197 -781 -745 -2996 -760 -3074 -39 -192 -70 -439 -70 -555 0 -556 271 -930
766 -1054 152 -38 284 -50 479 -44 253 8 408 47 630 157 200 99 427 288 582
486 58 74 58 74 106 74 35 0 48 -4 44 -12 -3 -7 -35 -84 -72 -172 -41 -99 -73
-193 -85 -253 -11 -52 -20 -97 -20 -99 0 -2 442 -3 982 -2 l983 3 1081 4520
c595 2486 1090 4574 1100 4640 25 165 26 500 1 634 -88 469 -370 797 -841 978
-335 128 -854 187 -1346 152z m-870 -5653 c42 -22 90 -65 90 -81 0 -34 -786
-3316 -816 -3405 -77 -233 -175 -380 -292 -437 -51 -25 -68 -28 -157 -28 -91
0 -104 2 -147 27 -90 53 -108 142 -64 316 14 53 183 768 376 1587 193 820 369
1542 390 1606 86 260 175 377 323 425 61 20 250 13 297 -10z"/>
<path d="M15175 9813 c-9 -38 -110 -450 -225 -918 -162 -664 -211 -881 -225
-990 -9 -77 -19 -148 -22 -157 -7 -28 -23 -21 -23 10 0 51 -39 185 -76 261
-107 217 -350 319 -672 282 -199 -23 -359 -82 -493 -182 -209 -155 -389 -452
-514 -847 -35 -112 -921 -3650 -940 -3757 -26 -141 -31 -412 -11 -514 52 -253
183 -390 430 -446 403 -91 811 90 1078 478 33 49 62 86 65 83 3 -3 -22 -74
-55 -158 -34 -84 -68 -184 -77 -223 -9 -38 -18 -78 -21 -87 -5 -17 10 -18 225
-18 l230 0 10 38 c21 79 1801 7202 1801 7207 0 3 -105 5 -234 5 l-234 0 -17
-67z m-884 -1925 c113 -52 176 -132 211 -271 19 -74 20 -101 15 -262 -4 -118
-13 -213 -26 -275 -37 -184 -840 -3356 -871 -3445 -105 -300 -283 -541 -461
-629 -113 -55 -182 -69 -323 -64 -104 3 -129 7 -176 29 -76 36 -112 68 -148
137 -59 110 -65 261 -21 503 20 112 849 3458 888 3584 83 267 219 508 344 606
117 93 207 120 387 116 110 -3 132 -6 181 -29z"/>
<path d="M23647 9606 c-139 -47 -233 -187 -267 -398 -30 -185 64 -267 294
-256 202 10 308 89 371 275 54 163 54 258 -1 330 -56 74 -253 98 -397 49z"/>
<path d="M21817 9333 c-2 -5 -66 -257 -142 -560 l-137 -553 -228 0 -227 0 -50
-192 -50 -193 227 -5 227 -5 -538 -2170 c-296 -1193 -549 -2222 -563 -2285
-53 -248 -55 -407 -7 -544 99 -282 449 -363 985 -228 98 25 111 31 116 53 10
34 34 319 28 325 -3 2 -36 -3 -74 -11 -38 -9 -144 -19 -235 -22 -163 -6 -168
-5 -221 19 -58 27 -97 70 -117 127 -14 42 -14 165 0 251 8 48 1045 4246 1100
4452 l10 38 367 2 367 3 42 164 c23 91 45 177 48 193 l7 28 -367 0 c-344 0
-366 1 -361 18 5 17 232 930 260 1045 l14 57 -239 0 c-131 0 -240 -3 -242 -7z"/>
<path d="M7088 8295 c-109 -18 -245 -68 -350 -131 -107 -63 -283 -237 -357
-351 -29 -46 -60 -83 -67 -83 -15 0 -13 6 66 200 36 89 80 239 80 274 0 14
-27 16 -227 16 l-228 0 -894 -3593 c-492 -1975 -897 -3602 -899 -3614 l-4 -23
234 0 234 0 229 897 c221 870 228 903 244 1066 9 96 20 166 25 164 6 -2 15
-35 22 -74 63 -374 312 -546 731 -504 187 19 354 77 480 167 210 150 380 412
498 768 47 140 950 3753 981 3921 25 139 26 395 1 485 -58 216 -189 346 -405
401 -103 26 -281 33 -394 14z m123 -407 c111 -51 171 -142 189 -287 12 -89 3
-187 -30 -352 -38 -188 -881 -3573 -916 -3675 -122 -366 -288 -565 -516 -619
-84 -20 -259 -19 -329 1 -237 68 -320 314 -253 748 20 126 832 3312 885 3471
114 342 277 573 479 679 101 53 164 66 310 63 110 -3 132 -6 181 -29z"/>
<path d="M9830 8299 c-98 -15 -250 -70 -343 -125 -140 -83 -296 -250 -413
-441 -7 -10 -14 -16 -17 -13 -3 3 20 68 50 145 52 131 102 297 103 338 0 16
-17 17 -227 17 l-228 0 -689 -2778 c-380 -1527 -692 -2785 -694 -2794 -4 -17
12 -18 231 -18 l235 0 547 2193 c301 1205 561 2230 577 2277 16 47 51 130 78
185 207 426 523 622 931 576 53 -6 114 -17 137 -25 l42 -15 11 42 c6 23 33
122 60 221 28 98 47 181 45 184 -26 25 -330 47 -436 31z"/>
<path d="M11405 8303 c-22 -2 -83 -10 -135 -19 -481 -82 -809 -388 -990 -925
-39 -114 -903 -3607 -932 -3769 -31 -165 -31 -442 0 -551 65 -239 219 -392
462 -462 286 -83 673 -46 948 90 288 142 516 435 646 828 47 143 910 3639 936
3793 65 378 14 639 -160 812 -76 77 -167 128 -293 164 -129 38 -318 53 -482
39z m266 -411 c64 -26 130 -79 164 -132 53 -83 74 -222 56 -369 -16 -128 -930
-3783 -976 -3904 -119 -306 -287 -478 -521 -533 -50 -12 -103 -15 -194 -12
-114 3 -131 6 -190 34 -89 42 -124 74 -161 149 -43 88 -56 192 -41 333 8 81
121 555 467 1957 251 1018 468 1884 481 1925 101 303 280 497 518 561 102 27
316 22 397 -9z"/>
<path d="M19645 8303 c-548 -50 -921 -367 -1125 -958 -40 -115 -913 -3618
-941 -3775 -21 -116 -18 -416 4 -513 56 -239 212 -399 458 -470 113 -33 296
-51 423 -43 340 24 599 138 811 357 142 147 243 315 314 525 25 75 361 1418
361 1446 0 4 -105 8 -233 8 l-234 0 -162 -642 c-89 -354 -175 -686 -191 -739
-76 -248 -210 -425 -381 -504 -101 -46 -171 -58 -314 -53 -164 6 -225 27 -301
102 -88 88 -120 229 -95 407 14 96 919 3775 957 3889 59 179 169 354 277 441
121 97 246 139 417 139 177 0 286 -43 351 -140 49 -73 62 -136 56 -269 -5
-107 -17 -164 -159 -741 -85 -344 -152 -628 -148 -633 3 -4 112 -6 240 -5
l234 3 143 580 c175 710 187 772 186 930 -1 192 -53 331 -167 447 -160 163
-450 241 -781 211z"/>
<path d="M25275 8303 c-22 -2 -83 -10 -135 -19 -481 -82 -809 -388 -990 -925
-39 -114 -903 -3607 -932 -3769 -31 -165 -31 -442 0 -551 65 -239 219 -392
462 -462 286 -83 673 -46 948 90 288 142 516 435 646 828 47 143 910 3639 936
3793 65 378 14 639 -160 812 -76 77 -167 128 -293 164 -129 38 -318 53 -482
39z m266 -411 c64 -26 130 -79 164 -132 53 -83 74 -222 56 -369 -16 -128 -930
-3783 -976 -3904 -119 -306 -287 -478 -521 -533 -50 -12 -103 -15 -194 -12
-114 3 -131 6 -190 34 -89 42 -124 74 -161 149 -43 88 -56 192 -41 333 8 81
121 555 467 1957 251 1018 468 1884 481 1925 101 303 280 497 518 561 102 27
316 22 397 -9z"/>
<path d="M28240 8300 c-149 -21 -307 -81 -435 -165 -85 -55 -239 -214 -309
-317 -33 -49 -63 -88 -68 -88 -4 0 6 37 23 83 17 45 41 111 54 147 26 71 65
219 65 244 0 14 -27 16 -227 16 l-228 0 -689 -2778 c-380 -1527 -692 -2785
-694 -2794 -4 -17 12 -18 232 -18 130 0 236 2 236 4 0 28 1117 4485 1140 4550
74 209 186 395 309 516 84 82 156 129 259 168 61 24 80 26 222 27 150 0 157
-1 212 -28 120 -59 171 -156 171 -327 0 -58 -6 -132 -12 -165 -7 -33 -273
-1112 -592 -2398 -318 -1286 -579 -2340 -579 -2342 0 -3 105 -5 234 -5 l234 0
27 108 c330 1317 1176 4748 1184 4805 15 109 13 269 -4 351 -56 265 -246 399
-580 411 -66 2 -149 0 -185 -5z"/>
<path d="M15397 5853 c-324 -1303 -597 -2415 -609 -2473 -28 -141 -30 -357 -4
-450 27 -99 65 -169 126 -231 111 -113 264 -163 500 -162 123 0 160 4 244 27
119 31 257 97 347 165 91 69 213 201 284 305 32 47 65 86 73 86 8 0 12 -6 9
-12 -103 -259 -156 -420 -157 -470 0 -5 105 -8 234 -8 l234 0 72 292 c40 161
351 1413 691 2782 340 1369 619 2495 619 2503 0 10 -46 13 -232 13 l-233 0
-548 -2208 c-302 -1214 -564 -2254 -584 -2312 -133 -405 -370 -673 -648 -735
-109 -25 -291 -18 -360 13 -65 30 -118 83 -146 146 -28 62 -37 215 -20 323 6
39 272 1124 591 2410 319 1287 580 2345 580 2352 0 8 -65 11 -238 11 l-238 0
-587 -2367z"/>
<path d="M22526 5442 c-380 -1527 -692 -2785 -694 -2794 -4 -17 12 -18 232
-18 130 0 236 2 236 5 0 4 1297 5227 1358 5468 l30 117 -237 0 -236 0 -689
-2778z"/>
</g>
</svg>
