<?xml version="1.0" encoding="utf-8"?>
<svg viewBox="-1846.26 -348.805 4133.242 1174.606" xmlns="http://www.w3.org/2000/svg">
  <g transform="matrix(1, 0, 0, 1, 975.354309, -712.834961)">
    <path d="M -2637.972 435.986 C -2638.095 436.416 -2643.93 460.429 -2650.869 489.293 C -2657.809 518.157 -2663.643 542.292 -2663.828 542.845 C -2664.134 543.889 -2660.757 543.95 -2599.037 543.95 C -2561.083 543.95 -2533.877 544.197 -2533.877 544.503 C -2533.877 544.81 -2574.103 711.178 -2623.234 914.271 C -2672.364 1117.304 -2712.59 1283.733 -2712.59 1284.04 C -2712.59 1284.347 -2686.182 1284.593 -2646.693 1284.593 L -2580.858 1284.593 L -2495.187 925.449 C -2448.083 727.944 -2408.349 561.33 -2406.875 555.127 L -2404.173 543.95 L -2235.963 543.95 C -2101.897 543.95 -2067.629 543.766 -2067.445 543.152 C -2066.585 540.941 -2041.529 436.109 -2041.774 435.679 C -2041.897 435.434 -2176.084 435.249 -2339.873 435.249 C -2577.604 435.249 -2637.788 435.434 -2637.972 435.986 Z" fill="#000000" stroke="none" style=""/>
    <path d="M -2005.417 435.986 C -2005.724 436.785 -2207.528 1279.679 -2208.204 1282.935 L -2208.572 1284.593 L -2146.36 1284.47 L -2084.149 1284.285 L -2018.253 1008.541 C -1982.08 856.85 -1951.558 730.523 -1950.576 727.699 C -1946.952 717.995 -1941.793 711.301 -1935.222 708.108 C -1932.213 706.634 -1930.985 706.388 -1926.502 706.388 C -1920.975 706.449 -1918.764 707.187 -1916.246 709.889 C -1913.605 712.714 -1912.806 715.784 -1912.868 722.355 C -1912.929 728.251 -1915.57 739.428 -1979.194 1006.391 L -2045.459 1284.285 L -1984.046 1284.47 C -1950.268 1284.532 -1922.571 1284.532 -1922.449 1284.47 C -1922.326 1284.285 -1787.155 722.663 -1785.006 713.389 C -1776.899 678.016 -1780.277 650.748 -1794.955 633.184 C -1802.877 623.727 -1817.248 616.725 -1834.689 613.9 C -1842.12 612.672 -1862.202 612.856 -1869.203 614.145 C -1890.145 618.076 -1906.972 626.858 -1922.94 642.15 C -1926.625 645.651 -1931.414 650.686 -1933.626 653.327 C -1936.881 657.257 -1937.985 658.179 -1939.399 658.179 L -1941.118 658.179 L -1936.881 646.94 C -1932.766 636.131 -1931.844 632.692 -1909.06 537.195 C -1896.041 482.967 -1885.293 437.89 -1885.048 436.908 L -1884.617 435.249 L -1944.864 435.249 C -1992.521 435.249 -2005.233 435.434 -2005.417 435.986 Z" fill="#000000" stroke="none" style=""/>
    <path d="M -1213.741 435.741 C -1213.864 435.986 -1223.874 478.976 -1235.911 531.177 C -1257.59 625.507 -1257.774 626.244 -1259.555 641.413 C -1260.6 649.765 -1261.397 657.012 -1261.397 657.38 C -1261.397 657.81 -1261.95 658.179 -1262.626 658.179 C -1263.547 658.179 -1264.038 657.319 -1265.082 653.819 C -1269.381 639.386 -1279.883 626.858 -1293.271 620.103 C -1303.895 614.821 -1312.8 613.04 -1328.338 613.101 C -1345.963 613.163 -1360.703 616.295 -1374.951 622.928 C -1387.049 628.578 -1400.192 639.141 -1409.587 650.809 C -1424.388 669.172 -1437.531 697.79 -1446.866 732.181 C -1451.225 748.272 -1551.452 1162.564 -1553.97 1175.155 C -1557.961 1194.499 -1559.312 1205.493 -1559.681 1220.723 C -1559.926 1231.716 -1559.804 1235.953 -1559.005 1241.481 C -1553.602 1277.96 -1531.922 1295.647 -1492.311 1295.647 C -1469.895 1295.647 -1449.69 1289.199 -1431.205 1276.056 C -1425.125 1271.758 -1413.825 1260.887 -1409.034 1254.808 C -1407.008 1252.167 -1404.981 1250.202 -1404.367 1250.202 C -1403.384 1250.202 -1403.446 1250.57 -1404.859 1254.316 C -1411.43 1271.573 -1414.316 1280.539 -1414.316 1283.794 C -1414.316 1284.408 -1401.849 1284.593 -1354.131 1284.593 L -1293.947 1284.593 L -1293.517 1282.873 C -1288.112 1261.194 -1090.914 436.047 -1091.099 435.679 C -1091.467 435.065 -1213.311 435.126 -1213.741 435.741 Z M -1294.868 706.757 C -1288.727 708.476 -1286.024 713.021 -1285.533 722.54 C -1285.348 725.795 -1285.471 730.831 -1285.84 733.717 C -1286.761 740.964 -1392.515 1179.453 -1394.419 1184.06 C -1397.734 1191.982 -1402.955 1198 -1408.666 1200.641 C -1411 1201.685 -1412.719 1201.931 -1417.694 1201.992 C -1423.16 1201.992 -1424.081 1201.808 -1426.231 1200.518 C -1428.994 1198.799 -1431.205 1194.561 -1431.819 1189.709 C -1432.863 1181.541 -1432.925 1182.033 -1376.854 950.198 C -1317.222 703.686 -1321.644 720.759 -1314.889 713.328 C -1309.423 707.371 -1301.807 704.853 -1294.868 706.757 Z" fill="#000000" stroke="none" style=""/>
    <path d="M -2241.796 613.409 C -2274.099 615.742 -2303.946 625.445 -2327.099 641.106 C -2333.118 645.221 -2342.268 652.836 -2348.287 658.731 C -2366.097 676.419 -2378.686 696.931 -2387.161 722.172 C -2389.25 728.558 -2419.035 846.41 -2419.035 848.437 C -2419.035 848.99 -2403.927 849.173 -2358.911 849.173 L -2298.788 849.173 L -2297.252 842.848 C -2296.393 839.409 -2289.699 812.08 -2282.39 782.049 C -2275.144 752.079 -2268.634 726.163 -2267.958 724.443 C -2264.581 716.03 -2260.343 710.933 -2254.263 708.169 C -2251.008 706.695 -2249.657 706.449 -2245.236 706.449 C -2239.647 706.449 -2237.498 707.187 -2235.041 709.889 C -2232.093 713.082 -2231.418 715.231 -2231.418 722.049 C -2231.418 728.436 -2231.54 729.049 -2253.834 820.187 C -2266.914 873.617 -2276.495 911.692 -2276.863 911.57 C -2287.611 906.718 -2297.928 903.402 -2307.447 901.559 C -2314.694 900.147 -2343.128 899.962 -2351.788 901.252 C -2368.43 903.77 -2382.309 907.946 -2394.9 914.271 C -2406.261 920.044 -2413.446 925.265 -2423.027 934.845 C -2437.704 949.523 -2447.592 966.165 -2455.33 989.38 C -2459.199 1000.925 -2505.873 1189.648 -2508.022 1202.422 C -2510.786 1218.635 -2511.4 1226.496 -2510.54 1235.155 C -2507.47 1268.379 -2490.151 1287.786 -2458.032 1294.235 C -2450.048 1295.77 -2427.756 1295.832 -2419.956 1294.235 C -2396.988 1289.567 -2378.073 1277.776 -2361.491 1257.817 L -2356.209 1251.429 L -2353.261 1251.429 L -2350.375 1251.429 L -2354.797 1261.993 C -2358.666 1271.143 -2361.306 1280.109 -2361.306 1283.794 C -2361.306 1284.408 -2348.84 1284.593 -2301.122 1284.593 L -2240.937 1284.593 L -2240.63 1283.18 C -2240.446 1282.443 -2210.599 1157.59 -2174.242 1005.777 C -2137.947 853.964 -2107.854 727.207 -2107.301 724.075 C -2104.17 704.546 -2105.459 683.297 -2110.557 668.926 C -2117.066 650.686 -2131.56 635.21 -2150.598 626.121 C -2172.4 615.742 -2206.852 610.952 -2241.796 613.409 Z M -2294.12 960.945 C -2292.463 961.806 -2290.62 963.156 -2290.005 964.016 C -2288.9 965.551 -2289.146 966.718 -2313.097 1067.313 C -2326.423 1123.26 -2338.154 1171.654 -2339.197 1174.786 C -2341.777 1182.647 -2346.629 1192.166 -2349.884 1195.912 C -2351.419 1197.693 -2354.244 1199.904 -2356.517 1201.132 C -2360.201 1203.097 -2360.693 1203.22 -2366.526 1203.22 C -2371.931 1203.22 -2372.975 1203.036 -2375.432 1201.685 C -2381.327 1198.369 -2382.555 1193.702 -2380.038 1183.507 C -2379.178 1179.822 -2368.614 1135.358 -2356.639 1084.693 C -2344.664 1034.027 -2334.039 989.933 -2333.056 986.739 C -2329.249 974.825 -2323.844 965.982 -2318.317 962.48 C -2313.957 959.718 -2311.132 959.103 -2303.885 959.226 C -2298.051 959.41 -2296.7 959.594 -2294.12 960.945 Z" fill="#000000" stroke="none" style=""/>
    <path d="M -1608.996 613.409 C -1641.238 615.681 -1670.594 625.016 -1693.132 640.062 C -1722.119 659.407 -1742.569 686.368 -1754.299 720.452 C -1756.326 726.348 -1787.094 846.84 -1787.094 848.867 C -1787.094 849.051 -1759.949 849.112 -1726.786 849.051 L -1666.479 848.867 L -1655.854 805.263 C -1650.02 781.251 -1643.264 753.615 -1640.869 743.85 C -1635.895 723.461 -1633.684 717.811 -1628.586 712.714 C -1624.103 708.231 -1619.805 706.449 -1613.294 706.449 C -1607.215 706.388 -1604.083 707.616 -1601.749 710.994 C -1599.6 714.249 -1598.985 717.443 -1599.354 724.505 C -1599.661 730.339 -1601.811 739.736 -1621.832 821.169 C -1633.991 870.729 -1644.062 911.447 -1644.185 911.631 C -1644.37 911.753 -1645.659 911.324 -1647.071 910.587 C -1655.117 906.472 -1670.286 902.112 -1681.033 900.761 C -1688.956 899.778 -1713.275 900.27 -1721.996 901.682 C -1742.385 904.814 -1759.888 911.324 -1774.259 920.904 C -1800.543 938.591 -1817.678 965.613 -1827.627 1005.163 C -1839.725 1053.127 -1873.379 1189.157 -1874.301 1193.947 C -1876.696 1205.738 -1878.599 1220.908 -1878.599 1228.031 C -1878.599 1262.177 -1861.957 1285.145 -1831.557 1292.761 C -1822.222 1295.094 -1814.116 1295.832 -1802.14 1295.462 C -1786.602 1294.971 -1777.083 1292.576 -1763.45 1285.821 C -1751.167 1279.741 -1737.227 1268.134 -1727.707 1255.974 C -1724.145 1251.429 -1724.145 1251.429 -1721.198 1251.429 C -1719.048 1251.429 -1718.25 1251.675 -1718.495 1252.167 C -1718.68 1252.596 -1720.645 1257.326 -1722.918 1262.729 C -1725.435 1268.809 -1727.4 1274.582 -1728.137 1278.267 C -1728.813 1281.461 -1729.365 1284.224 -1729.365 1284.347 C -1729.365 1284.47 -1702.221 1284.532 -1669.058 1284.47 L -1608.688 1284.285 L -1542.302 1006.698 C -1505.761 854.026 -1475.361 725.795 -1474.746 721.742 C -1473.211 711.608 -1473.15 691.034 -1474.685 682.805 C -1480.09 654.003 -1497.408 633.859 -1526.334 622.744 C -1546.907 614.883 -1578.781 611.259 -1608.996 613.409 Z M -1662.425 960.577 C -1659.846 961.928 -1656.898 964.569 -1656.898 965.551 C -1656.898 967.639 -1705.169 1169.197 -1707.012 1174.663 C -1711.74 1188.972 -1717.759 1198 -1724.944 1201.501 C -1728.076 1203.036 -1729.12 1203.22 -1734.586 1203.22 C -1740.174 1203.22 -1740.972 1203.097 -1743.613 1201.562 C -1749.14 1198.307 -1750.246 1192.841 -1747.544 1182.155 C -1746.684 1178.901 -1736.305 1134.99 -1724.453 1084.693 C -1712.6 1034.334 -1701.791 989.994 -1700.501 986.063 C -1695.22 970.096 -1689.754 962.911 -1680.665 959.963 C -1676.918 958.735 -1665.312 959.165 -1662.425 960.577 Z" fill="#000000" stroke="none" style=""/>
    <path d="M -185.807 589.118 C -186.707 592.918 -196.807 634.118 -208.307 680.918 C -224.507 747.318 -229.407 769.018 -230.807 779.918 C -231.707 787.618 -232.707 794.718 -233.007 795.618 C -233.707 798.418 -235.307 797.718 -235.307 794.618 C -235.307 789.518 -239.207 776.118 -242.907 768.518 C -253.607 746.818 -277.907 736.618 -310.107 740.318 C -330.007 742.618 -346.007 748.518 -359.407 758.518 C -380.307 774.018 -398.307 803.718 -410.807 843.218 C -414.307 854.418 -502.907 1208.218 -504.807 1218.918 C -507.407 1233.018 -507.907 1260.118 -505.907 1270.318 C -500.707 1295.618 -487.607 1309.318 -462.907 1314.918 C -422.607 1324.018 -381.807 1305.918 -355.107 1267.118 C -351.807 1262.218 -348.907 1258.518 -348.607 1258.818 C -348.307 1259.118 -350.807 1266.218 -354.107 1274.618 C -357.507 1283.018 -360.907 1293.018 -361.807 1296.918 C -362.707 1300.718 -363.607 1304.718 -363.907 1305.618 C -364.407 1307.318 -362.907 1307.418 -341.407 1307.418 L -318.407 1307.418 L -317.407 1303.618 C -315.307 1295.718 -137.307 583.418 -137.307 582.918 C -137.307 582.618 -147.807 582.418 -160.707 582.418 L -184.107 582.418 L -185.807 589.118 Z M -274.207 781.618 C -262.907 786.818 -256.607 794.818 -253.107 808.718 C -251.207 816.118 -251.107 818.818 -251.607 834.918 C -252.007 846.718 -252.907 856.218 -254.207 862.418 C -257.907 880.818 -338.207 1198.018 -341.307 1206.918 C -351.807 1236.918 -369.607 1261.018 -387.407 1269.818 C -398.707 1275.318 -405.607 1276.718 -419.707 1276.218 C -430.107 1275.918 -432.607 1275.518 -437.307 1273.318 C -444.907 1269.718 -448.507 1266.518 -452.107 1259.618 C -458.007 1248.618 -458.607 1233.518 -454.207 1209.318 C -452.207 1198.118 -369.307 863.518 -365.407 850.918 C -357.107 824.218 -343.507 800.118 -331.007 790.318 C -319.307 781.018 -310.307 778.318 -292.307 778.718 C -281.307 779.018 -279.107 779.318 -274.207 781.618 Z" fill="#000000" stroke="none"/>
    <path d="M 661.393 609.818 C 647.493 614.518 638.093 628.518 634.693 649.618 C 631.693 668.118 641.093 676.318 664.093 675.218 C 684.293 674.218 694.893 666.318 701.193 647.718 C 706.593 631.418 706.593 621.918 701.093 614.718 C 695.493 607.318 675.793 604.918 661.393 609.818 Z" fill="#000000" stroke="none"/>
    <path d="M 478.393 637.118 C 478.193 637.618 471.793 662.818 464.193 693.118 L 450.493 748.418 L 427.693 748.418 L 404.993 748.418 L 399.993 767.618 L 394.993 786.918 L 417.693 787.418 L 440.393 787.918 L 386.593 1004.918 C 356.993 1124.218 331.693 1227.118 330.293 1233.418 C 324.993 1258.218 324.793 1274.118 329.593 1287.818 C 339.493 1316.018 374.493 1324.118 428.093 1310.618 C 437.893 1308.118 439.193 1307.518 439.693 1305.318 C 440.693 1301.918 443.093 1273.418 442.493 1272.818 C 442.193 1272.618 438.893 1273.118 435.093 1273.918 C 431.293 1274.818 420.693 1275.818 411.593 1276.118 C 395.293 1276.718 394.793 1276.618 389.493 1274.218 C 383.693 1271.518 379.793 1267.218 377.793 1261.518 C 376.393 1257.318 376.393 1245.018 377.793 1236.418 C 378.593 1231.618 482.293 811.818 487.793 791.218 L 488.793 787.418 L 525.493 787.218 L 562.193 786.918 L 566.393 770.518 C 568.693 761.418 570.893 752.818 571.193 751.218 L 571.893 748.418 L 535.193 748.418 C 500.793 748.418 498.593 748.318 499.093 746.618 C 499.593 744.918 522.293 653.618 525.093 642.118 L 526.493 636.418 L 502.593 636.418 C 489.493 636.418 478.593 636.718 478.393 637.118 Z" fill="#000000" stroke="none"/>
    <path d="M -994.507 740.918 C -1005.407 742.718 -1019.007 747.718 -1029.507 754.018 C -1040.207 760.318 -1057.807 777.718 -1065.207 789.118 C -1068.107 793.718 -1071.207 797.418 -1071.907 797.418 C -1073.407 797.418 -1073.207 796.818 -1065.307 777.418 C -1061.707 768.518 -1057.307 753.518 -1057.307 750.018 C -1057.307 748.618 -1060.007 748.418 -1080.007 748.418 L -1102.807 748.418 L -1192.207 1107.718 C -1241.407 1305.218 -1281.907 1467.918 -1282.107 1469.118 L -1282.507 1471.418 L -1259.107 1471.418 L -1235.707 1471.418 L -1212.807 1381.718 C -1190.707 1294.718 -1190.007 1291.418 -1188.407 1275.118 C -1187.507 1265.518 -1186.407 1258.518 -1185.907 1258.718 C -1185.307 1258.918 -1184.407 1262.218 -1183.707 1266.118 C -1177.407 1303.518 -1152.507 1320.718 -1110.607 1316.518 C -1091.907 1314.618 -1075.207 1308.818 -1062.607 1299.818 C -1041.607 1284.818 -1024.607 1258.618 -1012.807 1223.018 C -1008.107 1209.018 -917.807 847.718 -914.707 830.918 C -912.207 817.018 -912.107 791.418 -914.607 782.418 C -920.407 760.818 -933.507 747.818 -955.107 742.318 C -965.407 739.718 -983.207 739.018 -994.507 740.918 Z M -982.207 781.618 C -971.107 786.718 -965.107 795.818 -963.307 810.318 C -962.107 819.218 -963.007 829.018 -966.307 845.518 C -970.107 864.318 -1054.407 1202.818 -1057.907 1213.018 C -1070.107 1249.618 -1086.707 1269.518 -1109.507 1274.918 C -1117.907 1276.918 -1135.407 1276.818 -1142.407 1274.818 C -1166.107 1268.018 -1174.407 1243.418 -1167.707 1200.018 C -1165.707 1187.418 -1084.507 868.818 -1079.207 852.918 C -1067.807 818.718 -1051.507 795.618 -1031.307 785.018 C -1021.207 779.718 -1014.907 778.418 -1000.307 778.718 C -989.307 779.018 -987.107 779.318 -982.207 781.618 Z" fill="#000000" stroke="none"/>
    <path d="M -720.307 740.518 C -730.107 742.018 -745.307 747.518 -754.607 753.018 C -768.607 761.318 -784.207 778.018 -795.907 797.118 C -796.607 798.118 -797.307 798.718 -797.607 798.418 C -797.907 798.118 -795.607 791.618 -792.607 783.918 C -787.407 770.818 -782.407 754.218 -782.307 750.118 C -782.307 748.518 -784.007 748.418 -805.007 748.418 L -827.807 748.418 L -896.707 1026.218 C -934.707 1178.918 -965.907 1304.718 -966.107 1305.618 C -966.507 1307.318 -964.907 1307.418 -943.007 1307.418 L -919.507 1307.418 L -864.807 1088.118 C -834.707 967.618 -808.707 865.118 -807.107 860.418 C -805.507 855.718 -802.007 847.418 -799.307 841.918 C -778.607 799.318 -747.007 779.718 -706.207 784.318 C -700.907 784.918 -694.807 786.018 -692.507 786.818 L -688.307 788.318 L -687.207 784.118 C -686.607 781.818 -683.907 771.918 -681.207 762.018 C -678.407 752.218 -676.507 743.918 -676.707 743.618 C -679.307 741.118 -709.707 738.918 -720.307 740.518 Z" fill="#000000" stroke="none"/>
    <path d="M -562.807 740.118 C -565.007 740.318 -571.107 741.118 -576.307 742.018 C -624.407 750.218 -657.207 780.818 -675.307 834.518 C -679.207 845.918 -765.607 1195.218 -768.507 1211.418 C -771.607 1227.918 -771.607 1255.618 -768.507 1266.518 C -762.007 1290.418 -746.607 1305.718 -722.307 1312.718 C -693.707 1321.018 -655.007 1317.318 -627.507 1303.718 C -598.707 1289.518 -575.907 1260.218 -562.907 1220.918 C -558.207 1206.618 -471.907 857.018 -469.307 841.618 C -462.807 803.818 -467.907 777.718 -485.307 760.418 C -492.907 752.718 -502.007 747.618 -514.607 744.018 C -527.507 740.218 -546.407 738.718 -562.807 740.118 Z M -536.207 781.218 C -529.807 783.818 -523.207 789.118 -519.807 794.418 C -514.507 802.718 -512.407 816.618 -514.207 831.318 C -515.807 844.118 -607.207 1209.618 -611.807 1221.718 C -623.707 1252.318 -640.507 1269.518 -663.907 1275.018 C -668.907 1276.218 -674.207 1276.518 -683.307 1276.218 C -694.707 1275.918 -696.407 1275.618 -702.307 1272.818 C -711.207 1268.618 -714.707 1265.418 -718.407 1257.918 C -722.707 1249.118 -724.007 1238.718 -722.507 1224.618 C -721.707 1216.518 -710.407 1169.118 -675.807 1028.918 C -650.707 927.118 -629.007 840.518 -627.707 836.418 C -617.607 806.118 -599.707 786.718 -575.907 780.318 C -565.707 777.618 -544.307 778.118 -536.207 781.218 Z" fill="#000000" stroke="none"/>
    <path d="M 261.193 740.118 C 206.393 745.118 169.093 776.818 148.693 835.918 C 144.693 847.418 57.393 1197.718 54.593 1213.418 C 52.493 1225.018 52.793 1255.018 54.993 1264.718 C 60.593 1288.618 76.193 1304.618 100.793 1311.718 C 112.093 1315.018 130.393 1316.818 143.093 1316.018 C 177.093 1313.618 202.993 1302.218 224.193 1280.318 C 238.393 1265.618 248.493 1248.818 255.593 1227.818 C 258.093 1220.318 291.693 1086.018 291.693 1083.218 C 291.693 1082.818 281.193 1082.418 268.393 1082.418 L 244.993 1082.418 L 228.793 1146.618 C 219.893 1182.018 211.293 1215.218 209.693 1220.518 C 202.093 1245.318 188.693 1263.018 171.593 1270.918 C 161.493 1275.518 154.493 1276.718 140.193 1276.218 C 123.793 1275.618 117.693 1273.518 110.093 1266.018 C 101.293 1257.218 98.093 1243.118 100.593 1225.318 C 101.993 1215.718 192.493 847.818 196.293 836.418 C 202.193 818.518 213.193 801.018 223.993 792.318 C 236.093 782.618 248.593 778.418 265.693 778.418 C 283.393 778.418 294.293 782.718 300.793 792.418 C 305.693 799.718 306.993 806.018 306.393 819.318 C 305.893 830.018 304.693 835.718 290.493 893.418 C 281.993 927.818 275.293 956.218 275.693 956.718 C 275.993 957.118 286.893 957.318 299.693 957.218 L 323.093 956.918 L 337.393 898.918 C 354.893 827.918 356.093 821.718 355.993 805.918 C 355.893 786.718 350.693 772.818 339.293 761.218 C 323.293 744.918 294.293 737.118 261.193 740.118 Z" fill="#000000" stroke="none"/>
    <path d="M 824.193 740.118 C 821.993 740.318 815.893 741.118 810.693 742.018 C 762.593 750.218 729.793 780.818 711.693 834.518 C 707.793 845.918 621.393 1195.218 618.493 1211.418 C 615.393 1227.918 615.393 1255.618 618.493 1266.518 C 624.993 1290.418 640.393 1305.718 664.693 1312.718 C 693.293 1321.018 731.993 1317.318 759.493 1303.718 C 788.293 1289.518 811.093 1260.218 824.093 1220.918 C 828.793 1206.618 915.093 857.018 917.693 841.618 C 924.193 803.818 919.093 777.718 901.693 760.418 C 894.093 752.718 884.993 747.618 872.393 744.018 C 859.493 740.218 840.593 738.718 824.193 740.118 Z M 850.793 781.218 C 857.193 783.818 863.793 789.118 867.193 794.418 C 872.493 802.718 874.593 816.618 872.793 831.318 C 871.193 844.118 779.793 1209.618 775.193 1221.718 C 763.293 1252.318 746.493 1269.518 723.093 1275.018 C 718.093 1276.218 712.793 1276.518 703.693 1276.218 C 692.293 1275.918 690.593 1275.618 684.693 1272.818 C 675.793 1268.618 672.293 1265.418 668.593 1257.918 C 664.293 1249.118 662.993 1238.718 664.493 1224.618 C 665.293 1216.518 676.593 1169.118 711.193 1028.918 C 736.293 927.118 757.993 840.518 759.293 836.418 C 769.393 806.118 787.293 786.718 811.093 780.318 C 821.293 777.618 842.693 778.118 850.793 781.218 Z" fill="#000000" stroke="none"/>
    <path d="M 1120.693 740.418 C 1105.793 742.518 1089.993 748.518 1077.193 756.918 C 1068.693 762.418 1053.293 778.318 1046.293 788.618 C 1042.993 793.518 1039.993 797.418 1039.493 797.418 C 1039.093 797.418 1040.093 793.718 1041.793 789.118 C 1043.493 784.618 1045.893 778.018 1047.193 774.418 C 1049.793 767.318 1053.693 752.518 1053.693 750.018 C 1053.693 748.618 1050.993 748.418 1030.993 748.418 L 1008.193 748.418 L 939.293 1026.218 C 901.293 1178.918 870.093 1304.718 869.893 1305.618 C 869.493 1307.318 871.093 1307.418 893.093 1307.418 C 906.093 1307.418 916.693 1307.218 916.693 1307.018 C 916.693 1304.218 1028.393 858.518 1030.693 852.018 C 1038.093 831.118 1049.293 812.518 1061.593 800.418 C 1069.993 792.218 1077.193 787.518 1087.493 783.618 C 1093.593 781.218 1095.493 781.018 1109.693 780.918 C 1124.693 780.918 1125.393 781.018 1130.893 783.718 C 1142.893 789.618 1147.993 799.318 1147.993 816.418 C 1147.993 822.218 1147.393 829.618 1146.793 832.918 C 1146.093 836.218 1119.493 944.118 1087.593 1072.718 C 1055.793 1201.318 1029.693 1306.718 1029.693 1306.918 C 1029.693 1307.218 1040.193 1307.418 1053.093 1307.418 L 1076.493 1307.418 L 1079.193 1296.618 C 1112.193 1164.918 1196.793 821.818 1197.593 816.118 C 1199.093 805.218 1198.893 789.218 1197.193 781.018 C 1191.593 754.518 1172.593 741.118 1139.193 739.918 C 1132.593 739.718 1124.293 739.918 1120.693 740.418 Z" fill="#000000" stroke="none"/>
    <path d="M -163.607 985.118 C -196.007 1115.418 -223.307 1226.618 -224.507 1232.418 C -227.307 1246.518 -227.507 1268.118 -224.907 1277.418 C -222.207 1287.318 -218.407 1294.318 -212.307 1300.518 C -201.207 1311.818 -185.907 1316.818 -162.307 1316.718 C -150.007 1316.718 -146.307 1316.318 -137.907 1314.018 C -126.007 1310.918 -112.207 1304.318 -103.207 1297.518 C -94.107 1290.618 -81.907 1277.418 -74.807 1267.018 C -71.607 1262.318 -68.307 1258.418 -67.507 1258.418 C -66.707 1258.418 -66.307 1259.018 -66.607 1259.618 C -76.907 1285.518 -82.207 1301.618 -82.307 1306.618 C -82.307 1307.118 -71.807 1307.418 -58.907 1307.418 L -35.507 1307.418 L -28.307 1278.218 C -24.307 1262.118 6.793 1136.918 40.793 1000.018 C 74.793 863.118 102.693 750.518 102.693 749.718 C 102.693 748.718 98.093 748.418 79.493 748.418 L 56.193 748.418 L 1.393 969.218 C -28.807 1090.618 -55.007 1194.618 -57.007 1200.418 C -70.307 1240.918 -94.007 1267.718 -121.807 1273.918 C -132.707 1276.418 -150.907 1275.718 -157.807 1272.618 C -164.307 1269.618 -169.607 1264.318 -172.407 1258.018 C -175.207 1251.818 -176.107 1236.518 -174.407 1225.718 C -173.807 1221.818 -147.207 1113.318 -115.307 984.718 C -83.407 856.018 -57.307 750.218 -57.307 749.518 C -57.307 748.718 -63.807 748.418 -81.107 748.418 L -104.907 748.418 L -163.607 985.118 Z" fill="#000000" stroke="none"/>
    <path d="M 549.293 1026.218 C 511.293 1178.918 480.093 1304.718 479.893 1305.618 C 479.493 1307.318 481.093 1307.418 503.093 1307.418 C 516.093 1307.418 526.693 1307.218 526.693 1306.918 C 526.693 1306.518 656.393 784.218 662.493 760.118 L 665.493 748.418 L 641.793 748.418 L 618.193 748.418 L 549.293 1026.218 Z" fill="#000000" stroke="none"/>
  </g>
</svg>