<?xml version="1.0" standalone="no"?>
<!DOCTYPE svg PUBLIC "-//W3C//DTD SVG 20010904//EN"
 "http://www.w3.org/TR/2001/REC-SVG-20010904/DTD/svg10.dtd">
<svg version="1.0" xmlns="http://www.w3.org/2000/svg"
 width="2806.000000pt" height="1494.000000pt" viewBox="0 0 2806.000000 1494.000000"
 preserveAspectRatio="xMidYMid meet">

<g transform="translate(0.000000,1494.000000) scale(0.100000,-0.100000)"
fill="#000000" stroke="none">
<path d="M2075 13988 c-2 -7 -97 -398 -210 -868 -113 -470 -208 -863 -211
-872 -5 -17 50 -18 1055 -18 618 0 1061 -4 1061 -9 0 -5 -655 -2714 -1455
-6021 -800 -3306 -1455 -6016 -1455 -6021 0 -5 430 -9 1073 -9 l1072 0 1395
5848 c767 3216 1414 5929 1438 6030 l44 182 2739 0 c2183 0 2741 3 2744 13 14
36 422 1743 418 1750 -2 4 -2187 7 -4854 7 -3871 0 -4851 -3 -4854 -12z"/>
<path d="M12375 13988 c-5 -13 -3291 -13738 -3302 -13791 l-6 -27 1013 2 1013
3 1073 4490 c589 2470 1086 4527 1102 4573 59 158 143 267 250 319 49 24 69
28 142 28 90 -1 126 -13 167 -57 43 -46 56 -96 55 -203 -1 -96 -44 -278 -1080
-4625 l-1079 -4525 1000 -3 c550 -1 1001 -1 1003 0 2 3 2203 9148 2238 9299
132 576 77 1020 -162 1306 -129 154 -363 268 -647 314 -121 20 -448 17 -562
-4 -341 -64 -615 -207 -875 -456 -60 -57 -138 -139 -174 -182 -53 -64 -71 -79
-94 -79 l-28 0 69 183 c67 176 82 232 453 1787 212 883 387 1617 391 1633 l7
27 -981 0 c-776 0 -983 -3 -986 -12z"/>
<path d="M25266 13992 c-2 -4 -165 -704 -361 -1554 -353 -1536 -356 -1548
-385 -1795 -17 -136 -30 -254 -30 -260 0 -7 -9 -13 -20 -13 -15 0 -23 14 -40
71 -70 235 -241 439 -459 549 -173 86 -318 115 -571 114 -287 -1 -527 -52
-759 -160 -197 -92 -411 -264 -564 -454 -241 -299 -455 -765 -607 -1325 -71
-262 -1703 -7008 -1744 -7213 -65 -315 -87 -494 -93 -742 -4 -179 -2 -248 11
-338 68 -460 292 -732 695 -840 89 -24 116 -26 352 -30 208 -3 273 -1 345 13
259 47 506 157 723 320 99 75 277 251 346 343 21 28 47 52 57 52 16 0 16 -6
-8 -67 -107 -281 -154 -427 -154 -480 0 -10 203 -13 980 -13 l980 0 7 28 c88
353 3299 13789 3296 13795 -6 10 -1990 9 -1997 -1z m-1321 -4413 c100 -28 144
-102 152 -257 3 -53 1 -135 -5 -182 -15 -118 -1737 -7258 -1768 -7333 -54
-129 -139 -227 -232 -270 -38 -17 -66 -21 -147 -22 -89 0 -104 3 -139 24 -45
28 -81 97 -91 176 -17 133 -18 125 895 3900 971 4014 899 3736 1009 3857 89
97 213 138 326 107z"/>
<path d="M8526 11099 c-526 -38 -1012 -196 -1389 -451 -98 -67 -247 -191 -345
-287 -290 -288 -495 -622 -633 -1033 -34 -104 -519 -2023 -519 -2056 0 -9 246
-12 979 -12 l979 0 25 103 c14 56 123 501 242 990 118 488 224 910 235 938 55
137 124 220 223 265 53 24 75 28 147 28 91 0 126 -12 166 -56 48 -52 59 -87
59 -198 0 -104 -2 -114 -365 -1598 -213 -870 -369 -1490 -375 -1488 -175 79
-343 133 -498 163 -118 23 -581 26 -722 5 -271 -41 -497 -109 -702 -212 -185
-94 -302 -179 -458 -335 -239 -239 -400 -510 -526 -888 -63 -188 -823 -3261
-858 -3469 -56 -334 -60 -521 -15 -718 96 -423 365 -681 803 -770 131 -26 521
-29 652 -4 358 68 677 267 946 590 l86 104 48 0 47 0 -72 -173 c-63 -148 -106
-294 -106 -354 0 -10 203 -13 980 -13 l980 0 5 23 c3 12 489 2045 1081 4517
591 2472 1081 4536 1090 4587 51 318 30 664 -53 898 -106 297 -342 549 -652
697 -355 169 -916 247 -1485 207z m-852 -5659 c27 -14 57 -36 67 -50 18 -25
14 -44 -376 -1682 -217 -911 -408 -1699 -425 -1750 -42 -128 -121 -283 -174
-344 -25 -29 -71 -65 -108 -85 -60 -32 -68 -34 -163 -34 -88 0 -105 3 -145 25
-96 54 -116 130 -75 296 14 60 186 784 381 1609 195 825 368 1543 384 1595 62
194 150 338 240 395 71 45 117 55 235 53 95 -3 117 -6 159 -28z"/>
<path d="M18830 11099 c-525 -37 -1003 -189 -1370 -434 -472 -315 -805 -754
-996 -1309 -33 -96 -534 -2058 -534 -2091 0 -3 442 -4 982 -3 l982 3 173 710
c95 391 205 841 244 1000 81 332 117 424 200 507 73 73 143 102 249 102 99 1
150 -19 188 -74 35 -53 45 -105 39 -220 -5 -95 -40 -248 -366 -1574 -198 -807
-362 -1470 -364 -1473 -3 -2 -24 5 -47 17 -131 67 -378 138 -553 160 -129 16
-525 8 -667 -15 -822 -128 -1356 -584 -1636 -1399 -52 -151 -20 -27 -474
-1851 -374 -1505 -377 -1518 -415 -1779 -71 -488 22 -852 282 -1096 127 -121
262 -192 463 -246 99 -26 119 -28 367 -32 220 -3 277 -1 350 13 215 43 439
142 613 273 118 89 270 237 357 348 58 74 58 74 106 74 35 0 48 -4 44 -12 -3
-7 -35 -84 -72 -172 -41 -99 -73 -193 -85 -253 -11 -52 -20 -97 -20 -99 0 -2
442 -3 982 -2 l983 3 1081 4520 c595 2486 1090 4574 1100 4640 25 165 26 500
1 634 -88 469 -370 797 -841 978 -335 128 -854 187 -1346 152z m-870 -5653
c42 -22 90 -65 90 -81 0 -34 -786 -3316 -816 -3405 -77 -233 -175 -380 -292
-437 -51 -25 -68 -28 -157 -28 -91 0 -104 2 -147 27 -90 53 -108 142 -64 316
14 53 183 767 376 1587 193 820 369 1542 390 1606 86 260 175 377 323 425 61
20 250 13 297 -10z"/>
<path d="M10118 3 c68 -2 176 -2 240 0 64 1 9 3 -123 3 -132 0 -185 -2 -117
-3z"/>
</g>
</svg>
